<?xml version="1.0" standalone="no"?>
<!DOCTYPE svg PUBLIC "-//W3C//DTD SVG 20010904//EN"
 "http://www.w3.org/TR/2001/REC-SVG-20010904/DTD/svg10.dtd">
<svg version="1.0" xmlns="http://www.w3.org/2000/svg"
 width="527.000000pt" height="527.000000pt" viewBox="0 0 527.000000 527.000000"
 preserveAspectRatio="xMidYMid meet">
<metadata>
Created by potrace 1.11, written by Peter Selinger 2001-2013
</metadata>
<g transform="translate(0.000000,527.000000) scale(0.100000,-0.100000)"
fill="#000000" stroke="none">
<path d="M1270 5253 c0 -14 -7 -19 -27 -18 l-28 0 1 -100 c1 -55 7 -135 13
-177 7 -43 14 -94 16 -115 2 -21 9 -72 14 -113 6 -41 11 -78 11 -82 0 -12 35
-9 48 4 7 7 12 43 13 87 1 78 6 73 25 -24 5 -26 9 -33 12 -21 2 11 -2 46 -9
79 l-12 61 38 33 c21 18 41 33 45 33 6 0 62 -179 90 -288 6 -24 14 -49 16 -57
4 -10 -39 -37 -148 -91 -84 -42 -188 -101 -231 -130 -43 -30 -85 -54 -92 -54
-14 0 -38 -67 -30 -80 3 -4 -2 -13 -10 -20 -28 -23 -10 -75 21 -63 8 3 14 0
14 -7 0 -6 -4 -8 -10 -5 -14 9 -13 -8 2 -23 10 -10 27 -120 30 -194 1 -22 4
-26 18 -18 9 5 27 6 39 3 15 -4 33 2 52 17 17 12 33 19 36 16 6 -6 -7 -57 -29
-117 -7 -21 -6 -31 8 -48 28 -32 41 -26 62 32 11 28 24 51 28 51 5 -1 18 -24
28 -50 37 -95 47 -114 61 -114 7 0 20 -3 29 -6 27 -10 30 25 7 67 -13 22 -34
95 -47 162 l-25 122 28 23 c45 36 60 36 92 3 52 -54 131 -299 116 -361 -4 -14
-18 -53 -32 -88 -18 -45 -23 -71 -18 -94 7 -28 8 -29 17 -12 6 10 30 38 54 60
34 32 44 49 44 73 0 18 7 45 15 61 14 28 13 34 -20 115 -33 79 -74 220 -75
254 0 22 113 8 171 -23 42 -22 53 -24 81 -14 48 16 59 27 48 47 -8 16 -51 39
-103 55 -10 3 -15 10 -12 16 4 6 -15 10 -52 10 -102 0 -98 -4 -98 118 1 59 -3
112 -8 119 -9 12 -11 59 -5 103 3 23 0 25 -34 23 -21 -1 -38 2 -38 7 0 6 10
10 23 10 13 0 31 6 41 13 15 11 16 17 5 40 -10 23 -10 29 3 40 9 6 18 21 21
32 4 18 5 18 6 -2 1 -19 7 -23 32 -23 31 0 31 -1 26 -37 -6 -32 -5 -34 7 -17
7 10 19 37 26 59 17 54 30 66 30 28 0 -18 5 -35 10 -38 21 -13 38 16 44 74 4
32 9 61 12 64 3 3 21 -10 40 -29 36 -35 56 -44 53 -21 -1 6 2 21 6 31 6 15 3
23 -13 34 -12 8 -22 25 -22 38 0 14 -9 28 -21 35 -21 11 -22 16 -15 121 3 60
7 115 9 121 3 15 -42 22 -56 8 -19 -19 -27 -12 -27 28 0 21 -3 66 -6 100 l-7
61 -53 0 c-53 0 -53 0 -44 -26 15 -38 12 -51 -10 -57 -17 -4 -20 -10 -14 -32
4 -15 17 -37 30 -50 13 -13 24 -31 24 -40 0 -17 11 -20 26 -6 5 5 18 5 29 1
17 -6 12 -12 -36 -44 -32 -21 -62 -34 -71 -31 -11 4 -21 35 -32 93 -8 48 -23
111 -31 140 -15 49 -17 52 -49 52 l-34 0 19 -72 c23 -87 109 -511 108 -530 0
-7 -24 77 -54 187 -29 110 -62 225 -73 257 -11 31 -17 59 -14 63 4 3 1 9 -5
13 -6 4 -15 23 -20 42 l-9 35 -82 3 c-74 3 -82 1 -82 -15z m96 -45 l16 -31
-38 -33 c-22 -17 -42 -30 -45 -28 -4 2 -10 20 -14 40 -5 30 -2 41 16 60 30 32
45 30 65 -8z m374 -118 c0 -5 -4 -10 -9 -10 -6 0 -13 5 -16 10 -3 6 1 10 9 10
9 0 16 -4 16 -10z m-330 -44 c0 -8 3 -21 6 -30 6 -16 -70 -106 -81 -95 -3 4
-9 24 -12 45 -6 34 -3 40 28 66 36 31 59 36 59 14z m380 -76 c0 -54 -8 -62
-41 -38 -36 27 -36 39 -2 60 34 20 43 15 43 -22z m-55 -154 c12 -19 -21 -129
-38 -123 -13 4 -51 108 -63 172 l-7 39 49 -36 c27 -20 53 -43 59 -52z m-260
-342 c-60 -24 -79 -24 -35 0 25 13 49 21 55 18 5 -3 -4 -11 -20 -18z m25 -89
c0 -6 -103 -75 -112 -75 -5 0 -8 7 -8 15 0 9 22 26 53 40 52 25 67 29 67 20z
m-170 -103 c0 -16 -157 -122 -180 -122 -6 0 -10 9 -10 20 0 13 18 31 53 53
125 81 137 85 137 49z m179 -34 c0 -17 -18 -35 -65 -66 -36 -24 -67 -42 -69
-40 -2 2 -1 15 2 30 5 26 25 43 98 85 30 17 35 15 34 -9z m-421 -144 c-3 -14
-5 -12 -10 9 -3 19 -2 25 4 19 6 -6 8 -18 6 -28z m196 9 c-9 -38 -21 -51 -65
-73 l-37 -19 -6 21 c-3 12 -4 23 -3 24 6 5 112 74 114 74 2 0 0 -12 -3 -27z
m-184 -99 c6 -14 7 -31 3 -37 -7 -12 -21 16 -22 46 -1 25 8 21 19 -9z"/>
<path d="M376 5126 c-4 -18 -26 -87 -50 -152 -42 -112 -50 -145 -47 -186 2
-28 22 -21 34 12 8 22 17 30 32 28 17 -3 25 11 52 90 39 111 53 219 32 233
-29 18 -47 10 -53 -25z"/>
<path d="M788 5107 c-42 -29 -90 -60 -107 -69 -33 -18 -46 -63 -14 -51 17 7
13 -6 -12 -37 -17 -21 -25 -59 -14 -65 8 -5 81 38 141 85 32 24 26 36 64 -135
14 -66 28 -131 31 -144 4 -17 -1 -29 -18 -42 -30 -23 -39 -24 -39 -1 0 31 -41
157 -60 182 -15 20 -20 22 -34 11 -18 -15 -21 -57 -5 -98 6 -15 16 -58 23 -95
l13 -68 -29 -22 c-20 -16 -29 -33 -31 -57 -6 -85 -50 -22 -59 85 -4 42 -21 97
-53 172 -44 102 -46 113 -37 155 5 25 5 51 1 59 -5 7 -6 34 -3 61 6 43 5 47
-14 47 -17 0 -23 -13 -41 -90 -11 -50 -35 -123 -52 -163 -33 -77 -69 -175 -69
-188 0 -5 6 -6 14 -3 8 3 15 -3 18 -13 3 -10 14 -19 26 -20 17 -1 24 10 42 68
11 38 25 67 29 64 5 -3 7 5 3 17 -5 20 -4 21 11 9 10 -8 17 -27 16 -50 -1 -46
55 -265 76 -297 17 -27 65 -34 65 -9 0 8 19 27 43 41 23 15 76 53 117 84 41
32 132 94 203 140 70 45 127 87 127 93 0 6 8 19 18 30 17 19 16 19 -18 12 -43
-9 -139 -48 -182 -75 -18 -11 -36 -20 -40 -20 -5 0 -8 25 -8 56 0 59 9 74 57
94 25 10 56 70 51 97 -6 33 -39 27 -84 -18 -24 -23 -47 -40 -50 -36 -9 9 -54
119 -54 133 0 5 16 25 35 44 35 34 48 74 21 64 -8 -3 -17 -1 -21 5 -9 16 -13
14 -97 -42z m-173 -663 l5 -29 -14 31 c-8 17 -17 44 -21 60 l-5 29 14 -31 c8
-17 17 -44 21 -60z"/>
<path d="M3999 4841 c-9 -6 -38 -15 -65 -21 -27 -6 -74 -22 -104 -34 -108 -46
-133 -47 -212 -14 -41 18 -79 27 -92 24 -13 -3 -47 3 -77 14 -68 25 -119 25
-189 -1 -30 -11 -60 -21 -67 -22 -6 -2 -26 -15 -44 -30 -25 -20 -44 -27 -76
-27 -26 0 -68 -11 -106 -28 -34 -16 -67 -27 -72 -25 -6 2 -34 -21 -64 -51
l-53 -53 -69 5 c-85 6 -181 -13 -231 -46 -25 -16 -44 -22 -58 -17 -23 7 -60
-18 -60 -41 0 -7 16 -33 35 -58 19 -26 35 -54 35 -64 0 -25 50 -100 98 -146
24 -23 39 -46 37 -56 -2 -10 -20 -39 -39 -65 -65 -85 -65 -89 -9 -87 20 1 22
-3 16 -31 -9 -48 -21 -67 -39 -60 -11 4 -12 8 -4 13 7 5 2 9 -14 12 -26 5 -36
-6 -13 -15 6 -3 -1 -6 -18 -7 -27 -1 -80 -18 -62 -19 4 -1 -8 -16 -26 -34 -19
-18 -43 -54 -55 -80 -42 -96 -1 -195 180 -438 48 -65 118 -150 155 -191 166
-180 296 -329 352 -403 59 -76 61 -81 61 -140 2 -198 -2 -351 -11 -402 -5 -32
-16 -129 -24 -215 -13 -146 -13 -161 3 -205 9 -26 28 -59 42 -74 34 -34 37
-52 8 -45 l-23 6 23 -12 c21 -10 22 -16 17 -77 -3 -36 -3 -61 1 -54 3 7 12 9
21 6 13 -5 14 -3 3 17 -9 18 -9 24 0 30 9 6 9 9 -1 12 -8 3 -11 8 -8 12 12 13
37 -5 32 -24 -3 -11 -2 -27 1 -36 5 -14 9 -14 23 -3 15 12 16 11 11 -8 -4 -15
-2 -23 7 -23 16 0 27 27 14 35 -5 4 -7 10 -4 15 3 5 0 12 -6 16 -8 5 -9 3 -4
-7 8 -12 6 -12 -8 0 -23 19 -20 20 36 14 52 -6 62 -19 20 -26 -26 -4 -26 -4 5
-6 31 -1 47 -21 17 -21 -21 0 -19 -27 3 -34 9 -3 4 -3 -13 0 -34 5 -68 7 -105
5 -21 -1 -22 -3 -9 -11 21 -12 349 -16 357 -4 4 5 25 10 47 11 39 1 41 -1 75
-57 19 -32 47 -66 63 -76 20 -14 32 -35 44 -77 9 -31 18 -56 19 -54 4 4 -23
160 -37 209 -5 21 -8 42 -5 47 3 4 33 11 67 15 37 3 80 16 105 30 37 21 60 25
84 16 3 -1 21 -3 40 -4 l35 -1 13 -150 c12 -148 23 -191 73 -301 22 -47 25
-107 7 -122 -7 -5 -42 -20 -78 -33 -36 -13 -67 -27 -68 -31 -2 -5 -8 -5 -14
-2 -5 3 -28 -2 -50 -12 -40 -18 -44 -28 -24 -76 5 -11 2 -18 -11 -21 -15 -4
-15 -5 3 -6 23 -1 34 -19 34 -53 0 -12 16 -46 36 -76 20 -30 42 -73 49 -96 7
-22 24 -68 38 -101 13 -33 28 -81 31 -106 l7 -46 -93 -7 c-51 -4 -147 -15
-212 -25 l-119 -17 -28 44 c-15 25 -33 68 -39 97 -12 56 -16 198 -9 298 2 33
1 64 -3 70 -4 7 -8 -1 -8 -18 l-1 -30 -11 25 c-12 31 -16 48 -17 78 -1 13 -5
20 -11 17 -5 -3 -10 -1 -10 5 0 7 -6 8 -18 1 -22 -11 -181 -29 -238 -25 l-42
2 -6 -72 c-10 -112 -9 -168 2 -211 6 -22 13 -97 17 -166 6 -110 5 -128 -10
-142 -9 -10 -23 -17 -30 -17 -25 0 -52 -39 -53 -76 -2 -43 -39 -81 -89 -90
-39 -7 -53 0 -53 30 0 23 75 105 86 93 4 -3 19 2 33 12 39 28 59 143 41 235
-7 36 -16 66 -20 66 -4 0 -19 28 -34 63 -33 78 -98 145 -183 186 l-62 31 -35
114 c-20 63 -36 118 -36 124 0 5 35 11 78 14 105 6 133 24 130 85 -1 24 -5 46
-9 49 -5 2 -6 11 -2 19 3 8 0 15 -5 15 -6 0 -26 15 -44 33 -58 58 -181 152
-238 183 -30 16 -57 30 -59 31 -2 2 8 12 22 23 14 11 35 36 47 55 21 34 50
146 50 192 0 12 14 33 33 49 17 15 25 25 15 21 -11 -4 -37 14 -85 59 -37 36
-94 90 -127 121 -58 55 -58 55 -52 100 5 40 2 51 -26 94 -17 27 -37 49 -43 49
-6 0 -22 -11 -35 -25 -26 -28 -50 -34 -29 -8 8 10 -6 1 -31 -19 -43 -35 -49
-36 -155 -44 -60 -5 -117 -8 -125 -7 -23 4 -169 -46 -222 -74 -44 -24 -48 -24
-69 -9 -37 25 -100 21 -137 -10 -26 -22 -32 -34 -32 -65 0 -22 4 -39 10 -39 5
0 7 -7 4 -15 -4 -9 6 -26 24 -44 28 -26 31 -33 28 -82 -2 -30 -13 -74 -26 -99
-25 -52 -77 -110 -98 -110 -7 0 -10 -4 -7 -10 3 -5 -1 -10 -10 -10 -9 0 -14 4
-11 9 7 11 -41 18 -79 11 -20 -4 -30 -11 -29 -23 1 -9 -1 -15 -5 -13 -10 7
-36 -17 -39 -36 -3 -20 14 -56 57 -120 15 -24 31 -55 35 -70 4 -16 47 -69 101
-123 52 -53 95 -100 95 -104 0 -4 11 -21 25 -37 57 -65 92 -141 159 -349 31
-94 73 -194 87 -205 15 -12 39 -71 34 -81 -8 -12 14 -41 25 -34 4 3 14 -3 21
-13 13 -15 12 -16 -3 -3 -23 17 -23 9 0 -27 19 -32 31 -39 41 -23 10 16 57
-12 53 -32 -2 -9 3 -17 11 -17 8 0 17 -7 21 -15 4 -13 2 -14 -14 -5 -11 6 -20
8 -20 5 0 -14 89 -45 130 -44 60 1 82 10 70 29 -13 20 -13 43 0 35 6 -4 10 7
10 24 0 17 4 31 10 31 6 0 6 9 0 26 -6 14 -10 29 -10 34 0 19 100 60 157 65
102 10 124 15 117 27 -5 8 -1 9 10 5 10 -4 22 -7 27 -7 5 0 9 -6 9 -13 0 -8
18 -21 40 -30 46 -18 45 -14 33 -189 l-6 -98 -39 0 c-21 0 -38 -5 -38 -11 0
-16 -327 -4 -415 15 -89 20 -168 20 -233 1 -62 -19 -87 -49 -77 -95 l7 -30
1383 0 c1089 0 1384 3 1388 13 4 9 6 9 6 0 1 -18 21 -16 21 2 0 8 5 15 10 15
6 0 10 -7 10 -15 0 -19 33 -19 68 -1 16 8 76 18 135 22 105 7 107 6 107 -15 0
-20 4 -21 115 -21 l115 0 0 55 c0 41 -4 55 -15 55 -8 0 -25 5 -39 11 -19 9
-24 18 -21 40 2 18 -2 30 -12 33 -8 4 -13 13 -9 21 9 25 -12 17 -31 -11 -13
-21 -22 -25 -44 -20 -16 3 -31 0 -35 -6 -10 -16 -34 20 -34 51 0 13 -3 21 -7
17 -4 -3 -6 -29 -4 -56 3 -63 -12 -64 -31 -4 -15 48 -13 94 4 94 5 0 6 -4 3
-10 -3 -5 -1 -10 4 -10 6 0 11 5 11 10 0 6 7 10 15 10 13 0 17 -9 28 -65 3
-18 5 -17 15 8 15 34 32 35 32 1 l0 -27 42 35 c43 36 63 66 36 56 -9 -4 -26 6
-42 23 -25 26 -44 34 -70 30 -53 -10 -110 -9 -145 3 -23 9 -44 15 -46 16 -16
2 -71 -36 -101 -69 -39 -44 -86 -57 -121 -35 -12 8 -45 15 -73 17 -63 3 -90
26 -132 112 -60 122 -142 335 -129 335 13 0 141 -160 141 -177 0 -20 122 -124
171 -146 45 -19 69 -23 144 -22 84 2 145 17 145 37 0 4 3 7 8 7 27 -5 82 39
82 66 0 8 4 15 9 15 13 0 22 43 10 51 -6 3 -10 9 -9 13 3 12 -51 171 -72 211
-30 57 -83 135 -115 170 -15 17 -33 40 -40 50 -6 11 -16 19 -23 17 -6 -1 -9 1
-6 6 3 4 -13 28 -36 53 -22 24 -37 38 -33 30 6 -9 4 -12 -4 -7 -6 4 -9 11 -6
15 6 10 -135 146 -203 195 -28 21 -50 42 -47 47 4 5 0 7 -7 4 -7 -3 -45 25
-83 61 -39 36 -87 77 -107 91 -21 14 -35 30 -31 36 3 5 1 7 -5 3 -12 -7 -122
66 -135 90 -6 11 -2 23 13 39 23 24 45 99 34 117 -4 5 -8 41 -10 78 -4 79 -9
101 -59 270 -33 115 -85 351 -85 393 0 9 4 17 9 17 23 0 229 -200 349 -340
114 -132 119 -136 185 -160 34 -13 62 -22 62 -21 0 1 12 -2 27 -8 25 -9 30 -7
51 25 29 41 95 93 120 94 9 0 16 3 16 8 -1 4 0 9 1 12 1 3 3 14 5 25 2 11 8
21 12 22 5 2 8 28 6 59 -3 65 -24 100 -87 143 -23 16 -49 38 -57 49 -8 11 -95
84 -194 163 -122 98 -248 212 -393 357 -160 159 -219 212 -237 212 -22 0 -43
21 -43 45 0 9 -67 34 -142 53 l-35 9 43 18 c23 9 42 21 42 27 0 5 5 6 10 3 6
-3 10 -1 10 5 0 6 5 8 12 4 7 -5 8 -3 3 6 -6 10 -4 12 8 7 10 -4 16 -2 14 5
-1 6 4 13 12 16 9 3 11 0 6 -9 -5 -8 -4 -11 1 -6 5 5 9 12 9 15 0 4 4 13 8 20
5 7 -22 -7 -60 -31 -94 -61 -197 -112 -266 -132 -72 -21 -71 -29 1 -11 29 8
52 12 52 9 0 -2 7 3 16 11 8 9 22 16 31 16 13 0 14 -2 2 -17 -8 -10 -9 -14 -2
-10 12 8 43 -28 43 -50 0 -7 -20 -23 -45 -35 -33 -16 -48 -30 -56 -55 -11 -34
-29 -45 -29 -18 0 8 -3 15 -7 15 -17 1 -78 86 -79 110 -1 23 -5 26 -60 32 -32
3 -72 11 -87 17 -16 6 -39 11 -52 11 -31 0 -162 68 -229 118 -28 22 -63 55
-76 75 -14 20 -34 38 -44 41 -11 3 -17 8 -13 12 3 4 1 16 -5 27 -10 19 -8 20
28 13 101 -18 113 -18 180 4 38 13 81 31 95 41 14 10 28 16 31 14 7 -7 66 60
80 90 11 26 19 29 80 40 30 4 41 2 58 -15 11 -11 25 -20 30 -20 6 0 10 -5 10
-11 0 -5 -5 -7 -12 -3 -7 4 -8 3 -4 -5 4 -6 12 -9 17 -6 5 4 9 1 9 -5 0 -7 7
-9 16 -6 9 4 13 2 8 -5 -4 -8 1 -9 16 -4 15 5 20 3 16 -3 -4 -7 21 -10 76 -8
87 3 97 5 167 30 24 9 46 14 49 11 9 -9 62 47 55 58 -3 6 -1 7 5 3 5 -3 12 -2
14 3 1 4 13 12 26 15 22 7 22 6 16 -51 -8 -71 -19 -131 -29 -158 -4 -11 3 -5
16 14 28 40 49 50 49 24 0 -15 2 -16 11 -3 8 11 9 9 3 -10 -4 -13 -13 -30 -20
-37 -7 -7 -15 -21 -18 -31 -3 -10 -27 -35 -52 -56 -25 -21 -43 -41 -40 -44 3
-3 1 -11 -6 -19 -8 -11 -7 -12 6 -7 11 4 16 1 16 -10 0 -44 92 -145 156 -172
40 -17 74 -18 74 -3 0 11 92 -37 143 -75 18 -13 42 -26 54 -28 19 -5 21 -1 21
31 0 20 -5 45 -11 56 -6 11 -17 49 -23 85 -6 36 -23 94 -37 130 -15 35 -25 66
-23 68 5 4 79 -47 88 -61 4 -7 8 -8 8 -3 0 4 11 1 25 -8 26 -17 26 -17 19 11
-17 74 -75 140 -174 200 -20 12 -47 34 -60 50 -14 15 -18 22 -9 15 13 -10 18
-6 33 24 22 47 46 163 46 223 0 58 10 111 20 111 5 0 18 -15 30 -32 20 -31 21
-31 16 -7 -3 14 -2 29 1 33 4 4 6 23 4 42 -2 32 -1 34 28 34 28 0 71 31 71 52
0 4 -21 18 -47 30 -50 24 -66 46 -83 115 -6 23 -26 64 -44 92 -34 50 -34 51
-24 113 6 35 10 82 9 105 -2 58 13 93 41 94 17 1 19 2 6 6 -10 2 -18 12 -18
22 0 10 -3 21 -7 25 -4 4 -8 21 -9 37 -1 17 -4 33 -7 36 -11 10 -132 14 -148
4z m36 -151 c-7 -75 -27 -144 -44 -157 -9 -6 -18 -8 -21 -4 -3 4 -27 23 -55
42 -27 18 -53 38 -57 43 -8 12 41 52 115 92 34 19 63 34 65 34 1 0 0 -22 -3
-50z m-1369 -286 c-5 -18 -3 -24 5 -19 14 9 4 -27 -18 -65 -11 -19 -13 -20
-10 -5 3 11 8 29 11 40 4 11 -3 2 -15 -20 -16 -28 -24 -36 -28 -25 -3 8 -14
26 -23 40 -9 14 -18 34 -20 45 -2 17 4 21 42 26 25 3 49 7 54 7 4 1 5 -10 2
-24z m1012 -219 c19 -25 38 -43 42 -40 4 3 7 -3 6 -13 0 -9 5 -16 12 -14 8 1
11 -2 7 -8 -3 -5 4 -20 17 -32 25 -24 82 -117 76 -123 -2 -2 -24 5 -48 16 -77
35 -143 36 -252 3 -14 -4 -18 1 -18 20 0 14 5 26 10 26 5 0 9 3 8 8 -1 4 4 18
11 32 l14 24 -27 -17 -26 -17 0 68 c0 38 -7 92 -16 121 -16 56 -13 77 6 42 6
-12 15 -19 20 -16 6 3 7 -1 4 -9 -4 -10 -1 -16 7 -16 7 0 10 -3 6 -6 -3 -3 3
-29 12 -57 10 -29 22 -70 26 -92 4 -22 9 -35 11 -30 2 6 -9 70 -24 142 -16 73
-27 135 -24 137 5 6 90 -85 140 -149z m-571 -166 c18 -35 30 -66 27 -68 -3 -3
-17 0 -32 5 -21 8 -31 7 -40 -2 -9 -10 -5 -15 18 -23 50 -17 34 -29 -32 -26
-35 2 -84 -1 -110 -7 -27 -6 -50 -9 -52 -7 -8 7 6 59 14 54 5 -3 11 9 15 27 4
18 13 47 20 63 8 17 24 64 36 105 12 41 29 91 37 110 l15 35 26 -101 c15 -56
41 -130 58 -165z m-278 -129 c1 11 4 10 13 -4 8 -15 8 -21 0 -24 -7 -2 -12
-12 -12 -23 0 -11 5 -16 13 -13 10 3 12 -5 9 -31 -3 -21 0 -35 7 -35 6 0 11 9
11 19 0 11 7 26 15 35 8 8 15 19 15 24 0 5 7 15 15 22 13 11 19 10 35 -7 22
-24 10 -43 -27 -43 -13 0 -23 -3 -23 -8 0 -15 32 -52 40 -47 5 3 12 1 15 -5 6
-10 -56 -42 -107 -55 -25 -6 -28 -4 -42 46 -17 55 -22 223 -9 269 6 19 10 6
19 -55 6 -44 12 -73 13 -65z m412 70 c18 -22 60 -63 93 -92 34 -28 48 -37 32
-20 -17 18 -25 32 -20 32 6 0 26 -16 45 -37 18 -20 28 -32 20 -28 -9 5 -19 2
-27 -10 -17 -22 -68 -28 -221 -25 -36 0 -43 4 -43 20 0 11 5 29 12 40 10 15 9
22 -4 37 -10 10 -14 24 -10 30 15 24 41 17 71 -21 17 -21 31 -35 31 -31 0 5
-8 18 -18 29 -33 37 -67 99 -51 94 8 -3 13 -10 12 -16 -2 -6 3 -9 11 -6 9 3
25 -15 45 -50 17 -31 34 -56 37 -56 3 0 -8 24 -24 53 -56 98 -51 131 9 57z
m589 -21 c0 -5 6 -6 13 -3 9 3 20 -9 30 -33 34 -81 31 -94 -26 -108 -21 -6
-27 -4 -27 9 0 13 -11 16 -50 16 -27 0 -50 1 -50 3 5 30 38 128 42 121 16 -27
29 -86 21 -97 -4 -7 0 -4 10 6 20 23 21 43 3 78 -12 24 -12 25 10 21 13 -2 24
-8 24 -13z m-250 -5 c0 -9 5 -12 11 -8 7 4 10 1 7 -7 -3 -9 -17 -13 -37 -12
l-33 2 4 -45 c3 -37 0 -44 -14 -44 -10 0 -18 7 -18 15 0 19 26 84 41 102 15
18 39 16 39 -3z m-241 -47 c1 -11 -47 25 -54 41 -3 8 8 3 24 -10 17 -13 30
-27 30 -31z m361 4 c0 -49 -11 -71 -36 -71 -28 0 -40 16 -18 24 13 5 15 15 11
46 -3 25 -1 41 7 43 18 7 36 -14 36 -42z m-112 -7 c-4 -3 -2 -19 2 -35 8 -26
6 -29 -16 -29 -20 0 -24 5 -24 28 0 32 7 42 28 42 9 0 13 -3 10 -6z m-506 -54
c4 0 8 -16 8 -35 0 -32 -2 -35 -29 -35 -17 0 -33 5 -37 12 -5 8 0 9 14 6 27
-7 30 17 6 44 -14 15 -15 20 -3 34 12 15 14 14 23 -5 5 -12 13 -21 18 -21z
m-95 -46 c21 -21 23 -28 12 -35 -15 -10 -49 22 -49 47 0 20 7 18 37 -12z m596
-99 c-3 -8 -12 -15 -19 -15 -12 0 -12 4 -4 20 12 23 32 18 23 -5z m-383 -28
c0 -2 -10 -12 -22 -23 l-23 -19 19 23 c18 21 26 27 26 19z m670 -190 c0 -2
-12 -14 -27 -28 l-28 -24 24 28 c23 25 31 32 31 24z m-235 -197 c-3 -5 -13
-10 -21 -10 -9 0 -12 -5 -8 -12 4 -7 3 -8 -4 -4 -22 13 -13 36 14 36 14 0 23
-4 19 -10z m103 -437 c4 -24 -22 -47 -43 -39 -20 7 -19 43 3 55 23 14 36 9 40
-16z m-489 -38 c17 -22 18 -31 9 -58 -16 -48 -25 -53 -50 -30 -13 11 -31 23
-41 26 -29 11 -31 36 -7 63 30 31 63 31 89 -1z m381 -130 c34 -17 42 -55 12
-55 -22 0 -62 35 -62 55 0 19 14 19 50 0z m158 -55 c3 0 -3 -9 -12 -19 -19
-21 -50 -18 -79 8 -17 14 -17 16 -1 28 13 10 23 9 52 -2 19 -8 37 -15 40 -15z
m-378 -24 c0 -2 3 -11 6 -19 7 -18 -21 -47 -47 -47 -21 0 -25 21 -9 51 9 16
50 28 50 15z m88 -75 c27 -23 28 -43 2 -59 -27 -16 -57 -1 -66 34 -11 43 27
58 64 25z m362 -87 c0 -3 -13 -19 -30 -37 -18 -19 -30 -26 -30 -18 0 16 38 61
52 61 4 0 8 -2 8 -6z m10 -34 c0 -5 -5 -10 -11 -10 -5 0 -7 5 -4 10 3 6 8 10
11 10 2 0 4 -4 4 -10z m-346 -81 c-3 -5 7 -9 21 -9 19 0 26 -5 23 -17 -2 -9
-10 -18 -18 -20 -12 -4 -12 -3 -1 5 18 13 1 21 -24 11 -11 -4 -15 -8 -8 -8 7
-1 10 -8 7 -16 -5 -12 -10 -13 -20 -4 -24 20 -14 82 12 72 8 -3 11 -9 8 -14z
m-1244 -389 c0 -16 -58 -42 -66 -28 -4 6 1 17 11 25 22 15 55 17 55 3z m-326
-46 c9 -3 16 -15 16 -26 0 -18 -5 -20 -36 -15 -39 7 -67 24 -58 38 6 10 55 12
78 3z m321 -194 c3 -5 1 -10 -4 -10 -6 0 -11 5 -11 10 0 6 2 10 4 10 3 0 8 -4
11 -10z m63 -117 c31 -23 42 -87 20 -125 -7 -13 -18 -42 -24 -66 l-11 -43 39
-19 c22 -10 45 -17 51 -14 7 2 17 -6 23 -18 7 -13 30 -57 53 -99 58 -108 94
-237 88 -315 -8 -102 -66 -195 -112 -178 -11 5 -16 3 -12 -2 3 -6 -9 -10 -31
-10 -59 -1 -130 -25 -136 -47 -4 -16 -11 -18 -48 -12 -24 3 -51 9 -60 11 -39
11 -83 125 -108 279 -6 39 -16 84 -21 102 -10 32 -24 134 -38 273 -5 44 -17
92 -29 117 -28 55 -28 75 4 113 31 36 65 55 117 64 33 6 37 5 37 -14 0 -11 4
-20 9 -20 4 0 6 12 3 26 l-5 27 82 -5 c61 -4 89 -10 109 -25z m960 -19 c-3
-14 -5 -12 -10 9 -3 19 -2 25 4 19 6 -6 8 -18 6 -28z m1 -37 c8 -10 7 -14 -2
-14 -8 0 -14 6 -14 14 0 7 1 13 2 13 2 0 8 -6 14 -13z m236 3 c-3 -5 -14 -10
-23 -9 -14 0 -13 2 3 9 27 11 27 11 20 0z m1172 -1462 c-3 -8 -6 -5 -6 6 -1
11 2 17 5 13 3 -3 4 -12 1 -19z m58 -8 c3 -5 3 -15 -1 -21 -6 -11 -23 6 -24
24 0 10 18 9 25 -3z"/>
<path d="M3260 3836 c0 -2 8 -10 18 -17 15 -13 16 -12 3 4 -13 16 -21 21 -21
13z"/>
<path d="M2135 1500 c-9 -16 -12 -30 -7 -30 4 0 13 14 19 30 6 17 10 30 7 30
-2 0 -10 -13 -19 -30z"/>
<path d="M2185 1500 c10 -11 20 -20 23 -20 3 0 -3 9 -13 20 -10 11 -20 20 -23
20 -3 0 3 -9 13 -20z"/>
<path d="M2020 4628 c0 -13 -16 -108 -36 -213 -19 -104 -37 -226 -41 -271 -5
-76 -5 -81 20 -108 33 -36 57 -29 57 16 0 18 7 42 15 52 8 11 15 40 15 65 0
25 7 87 15 136 19 114 31 320 19 327 -5 3 -21 8 -36 12 -24 6 -28 3 -28 -16z
m-53 -445 c-3 -10 -5 -4 -5 12 0 17 2 24 5 18 2 -7 2 -21 0 -30z"/>
<path d="M671 4118 c-1 -10 -10 -22 -22 -29 -25 -13 -22 -45 15 -125 20 -43
22 -55 11 -64 -14 -12 -25 6 -25 41 0 23 -28 94 -35 88 -2 -3 3 -24 11 -49 8
-24 14 -59 12 -79 -3 -35 -4 -34 -16 19 -17 71 -58 142 -80 138 -20 -4 -19
-13 2 -88 42 -147 42 -147 11 -180 -16 -17 -32 -30 -36 -30 -4 0 -15 23 -24
51 -10 28 -24 63 -31 78 -8 14 -14 31 -14 37 0 16 -34 44 -53 44 -21 0 -22
-14 -3 -43 8 -12 29 -64 47 -115 l32 -93 -51 -45 c-60 -52 -182 -206 -182
-228 0 -9 7 -16 16 -16 22 0 124 70 132 90 11 26 92 114 99 106 3 -3 21 -70
39 -148 20 -83 40 -148 50 -157 15 -15 16 -14 10 3 -11 31 -38 198 -33 203 7
6 24 -50 42 -132 14 -69 14 -70 -10 -101 -29 -37 -32 -64 -9 -64 10 0 14 -6
11 -15 -10 -24 13 -28 34 -6 11 12 24 21 29 21 4 0 44 35 87 78 43 42 104 99
136 125 31 27 57 56 57 65 0 9 28 45 62 79 36 36 56 63 47 63 -8 0 -28 -13
-44 -30 -28 -30 -55 -39 -55 -20 0 30 -45 -3 -148 -107 l-114 -118 -43 127
c-23 69 -52 143 -65 163 l-22 36 23 25 c12 13 26 24 30 24 9 0 49 -161 49
-200 0 -16 5 -30 10 -30 6 0 10 10 10 21 0 18 2 19 15 9 14 -12 13 -16 -6 -36
-12 -13 -20 -26 -17 -29 3 -3 33 24 66 60 34 36 68 65 77 65 10 0 15 10 15 29
0 17 4 33 10 36 12 8 1 67 -15 80 -15 12 -45 80 -45 102 0 7 8 16 18 20 28 10
72 55 72 74 0 21 -19 35 -42 31 -13 -2 -16 1 -12 12 9 24 -10 19 -36 -9 -13
-14 -29 -25 -35 -25 -7 0 -24 42 -38 93 -14 50 -26 84 -26 75z m63 -342 c20
-68 20 -90 0 -132 -17 -35 -17 -35 -36 -15 -18 20 -21 32 -33 118 -4 35 -1 46
17 63 12 11 25 20 29 20 4 0 15 -24 23 -54z m-207 -218 c-3 -7 -5 -2 -5 12 0
14 2 19 5 13 2 -7 2 -19 0 -25z"/>
<path d="M1973 3855 c-30 -21 -32 -75 -4 -75 23 0 63 47 59 69 -4 22 -29 24
-55 6z"/>
<path d="M2256 3781 c-5 -8 -2 -20 8 -29 17 -17 19 -9 7 22 -6 15 -10 16 -15
7z"/>
<path d="M3318 3559 c-14 -8 -18 -22 -16 -62 1 -41 2 -45 5 -16 4 32 8 37 33
41 17 3 31 -1 34 -8 3 -7 -2 -10 -14 -7 -22 6 -36 -15 -21 -30 8 -8 11 -8 11
2 0 8 6 11 15 7 13 -5 18 3 17 24 0 3 6 11 14 18 12 11 17 7 34 -20 11 -18 20
-37 20 -42 0 -5 3 -7 6 -4 9 10 -24 65 -52 87 -29 23 -59 26 -86 10z m33 -14
c-42 -19 -47 -19 -31 0 7 8 24 15 39 15 25 -1 25 -1 -8 -15z"/>
<path d="M4750 2076 c0 -2 8 -10 18 -17 15 -13 16 -12 3 4 -13 16 -21 21 -21
13z"/>
<path d="M3080 1490 c0 -5 5 -10 11 -10 5 0 7 5 4 10 -3 6 -8 10 -11 10 -2 0
-4 -4 -4 -10z"/>
<path d="M3148 1463 c7 -3 16 -2 19 1 4 3 -2 6 -13 5 -11 0 -14 -3 -6 -6z"/>
<path d="M2325 210 c3 -5 8 -10 11 -10 2 0 4 5 4 10 0 6 -5 10 -11 10 -5 0 -7
-4 -4 -10z"/>
</g>
</svg>
